# xmcd
#
# Track frame offsets:
#	150
#	10075
#	21887
#	34925
#	45007
#	58770
#	68650
#	81075
#	92725
#	105182
#	114605
#	126357
#	139380
#	151760
#	164827
#
# Disc length: 2450 seconds
#
# Revision: 10
# Processed by: cddbd v1.5.2PL0 Copyright (c) Steve Scherf et al.
# Submitted via: audiograbber 1.83.01
#
DISCID=bc09900f
DTITLE=Various Artist - Time-Life - Classic Country - Golden '60s  [CD2)
DYEAR=1999
DGENRE=Oldies
TTITLE0=Buck Owens - I've Got A Tiger By The Tail
TTITLE1=Ernest Ashworth - Talk Back Trembling Lips
TTITLE2=Marty Robbins - Devil Woman
TTITLE3=Loretta Lynn - You Ain't Woman Enough (To Take My Man)
TTITLE4=Willie Nelson - Funny How Time Slips Away
TTITLE5=Eddy Arnold - What's He Doing In My World
TTITLE6=Hawkshaw Hawkins - Lonesome 7-7203
TTITLE7=Patsy Cline - Sweet Dreams
TTITLE8=Johnny Cash - Folsom Prison Blues
TTITLE9=Roger Miller - Chug-A-Lug
TTITLE10=Jerry Lee Lewis - What's Made Milwaukee Famous (Has Made A Loser Out O
TTITLE10=f Me)
TTITLE11=Tammy Wynette - My Elusive Dreams
TTITLE12=Glen Campbell - By the Time I Get To Phoenix
TTITLE13=Jack Greene - Statue Of A Fool
TTITLE14=Bobbie Gentry - Ode To Billie Joe
EXTD=
EXTT0=
EXTT1=
EXTT2=
EXTT3=
EXTT4=
EXTT5=
EXTT6=
EXTT7=
EXTT8=
EXTT9=
EXTT10=
EXTT11=
EXTT12=
EXTT13=
EXTT14=
PLAYORDER=
